<svg version="1.1" id="Layer_1" xmlns="http://www.w3.org/2000/svg" xmlns:xlink="http://www.w3.org/1999/xlink" x="0px" y="0px"
	 width="100%" viewBox="0 0 656 431" enable-background="new 0 0 656 431" xml:space="preserve">
<path fill="#1F1F1F" opacity="1.000000" stroke="none" 
	d="
M657.000000,374.000000 
	C657.000000,393.263733 657.000000,412.527496 657.000000,432.000000 
	C635.979553,432.000000 614.958435,432.000000 593.388611,431.645996 
	C590.747192,430.196228 588.761963,428.482361 586.545715,428.096802 
	C549.157471,421.592163 513.072876,410.852081 478.476807,395.209869 
	C431.012238,373.749359 388.733643,344.626953 351.764008,308.023468 
	C339.042450,295.427917 327.592560,281.532471 315.810455,268.014038 
	C312.726624,264.475800 310.574402,260.125580 308.250244,256.091064 
	C308.675232,255.989410 308.844299,255.944916 309.389618,256.012970 
	C317.102203,257.290680 323.507965,255.907211 328.551880,249.443741 
	C326.735535,248.031387 325.227142,246.858475 323.610229,245.601166 
	C319.373993,250.251251 314.656525,251.881332 308.749695,249.803391 
	C305.359467,247.546295 302.188629,245.538849 302.556305,240.738586 
	C305.830322,240.543198 308.893372,240.360382 312.421936,240.260590 
	C318.593201,240.343597 324.298950,240.343597 329.938324,240.343597 
	C330.382843,228.063324 325.777985,221.678146 315.592194,220.051086 
	C312.058746,220.478165 308.946716,220.999466 305.486938,221.616486 
	C298.452393,224.616440 295.935699,230.309174 294.565826,236.916626 
	C292.293823,235.829620 290.370941,234.828247 288.481812,233.391739 
	C289.320648,220.590332 285.383331,210.884201 272.976532,205.521179 
	C266.791901,204.502472 260.895050,203.730072 254.993988,202.569260 
	C254.414078,200.297028 254.010941,198.338760 253.235107,196.541351 
	C247.707870,183.736237 241.658508,171.137527 236.604294,158.150513 
	C216.946762,107.639565 207.273849,55.191013 207.000000,1.000000 
	C231.687561,1.000000 256.375122,1.000000 281.531311,1.466688 
	C282.653778,12.523371 282.797211,23.175711 284.081451,33.688694 
	C285.989563,49.308918 287.902283,65.004051 291.222839,80.362511 
	C302.416809,132.138062 324.126617,179.250061 355.883392,221.677185 
	C356.982178,223.145142 358.909912,223.992645 360.349548,225.495132 
	C359.153351,228.698990 358.143341,231.573395 356.943237,234.366104 
	C355.383301,237.996338 353.672180,241.561615 351.706665,244.972229 
	C348.128296,236.867493 344.869324,228.945404 341.660736,221.145782 
	C339.255280,221.145782 337.011993,221.145782 334.218842,221.145782 
	C338.867950,232.524933 343.292755,243.426971 347.830505,254.281784 
	C348.101227,254.929260 349.277008,255.198380 350.439575,255.719879 
	C353.402252,255.858215 355.402771,256.352722 356.513641,252.473328 
	C358.246246,246.422745 361.496582,240.806808 364.433899,235.076721 
	C366.949188,237.263824 369.030701,239.504333 371.354645,241.456177 
	C373.003845,242.841354 374.980316,243.836899 376.883667,245.463074 
	C376.956604,249.196503 376.956604,252.473206 376.956604,256.170837 
	C380.380981,256.170837 383.187408,256.170837 386.069794,256.495422 
	C386.694855,257.640289 387.111725,258.601410 387.812897,259.259766 
	C398.471069,269.267456 408.640320,279.881348 419.949829,289.094116 
	C456.938232,319.225006 498.131409,341.674805 543.734680,356.201813 
	C580.653198,367.962219 618.448425,373.140381 657.000000,374.000000 
z"/>
<path fill="#252525" opacity="1.000000" stroke="none" 
	d="
M360.451233,225.129364 
	C358.909912,223.992645 356.982178,223.145142 355.883392,221.677185 
	C324.126617,179.250061 302.416809,132.138062 291.222839,80.362511 
	C287.902283,65.004051 285.989563,49.308918 284.081451,33.688694 
	C282.797211,23.175711 282.653778,12.523371 282.000000,1.466688 
	C305.020905,1.000000 328.041779,1.000000 351.531372,1.453316 
	C352.322052,5.542083 352.884521,9.174827 352.925507,12.813442 
	C353.128632,30.861170 355.918945,48.554855 359.951630,66.088188 
	C367.325073,98.146278 379.431244,128.276657 396.587250,156.377823 
	C410.104126,178.518265 426.156250,198.585358 444.905548,216.520767 
	C446.343903,217.896667 446.986328,220.104568 447.621155,221.853119 
	C443.489197,221.261139 439.734772,220.741776 435.610809,220.211594 
	C425.320984,222.899704 419.558075,230.089859 420.127014,239.058167 
	C420.698578,248.067535 427.209229,255.008194 436.338745,256.110779 
	C440.444885,255.443344 444.214661,254.647110 448.315918,253.798798 
	C457.721924,247.184357 459.441986,239.855850 455.070099,228.022003 
	C456.979156,228.867645 458.478333,229.758392 460.040924,230.518875 
	C461.868073,231.408157 463.750549,232.183868 465.686340,233.471115 
	C465.763641,241.146301 465.763641,248.359222 465.763641,255.503662 
	C468.411865,255.503662 470.152557,255.503662 472.454254,255.503662 
	C472.454254,249.577286 472.423340,243.977661 472.464142,238.378586 
	C472.496185,233.980286 473.168213,229.799698 477.374573,226.900665 
	C481.932617,225.419449 485.708801,225.895325 489.007629,229.541809 
	C489.580475,238.484924 490.086060,247.019348 490.598938,255.677368 
	C492.905853,255.677368 494.885132,255.677368 496.947174,256.037048 
	C501.307281,259.405548 505.331848,262.882294 509.901123,265.350922 
	C555.781616,290.138794 604.501709,303.992432 657.000000,303.000000 
	C657.000000,326.354218 657.000000,349.708466 657.000000,373.531342 
	C618.448425,373.140381 580.653198,367.962219 543.734680,356.201813 
	C498.131409,341.674805 456.938232,319.225006 419.949829,289.094116 
	C408.640320,279.881348 398.471069,269.267456 387.812897,259.259766 
	C387.111725,258.601410 386.694855,257.640289 386.526550,256.421997 
	C388.861511,256.019531 390.905884,256.385895 392.752075,255.937103 
	C397.257965,254.841782 401.672180,253.369110 406.483276,252.055435 
	C412.591919,249.699524 413.600983,244.850662 413.070465,239.498901 
	C412.571564,234.466370 410.436584,230.382965 404.886719,228.885223 
	C404.772888,228.776398 404.462006,228.827118 404.285339,228.531769 
	C403.953918,227.815720 403.799225,227.394989 403.865387,226.726685 
	C404.743530,226.025604 405.400787,225.572113 406.387573,224.983551 
	C410.699463,222.694382 411.437103,218.998260 410.867065,215.065933 
	C410.349335,211.494431 409.593231,207.741333 404.887085,206.492920 
	C395.778503,201.463531 386.394257,205.242416 376.810699,203.813217 
	C376.810699,218.108810 376.810699,231.557587 376.810699,245.006348 
	C374.980316,243.836899 373.003845,242.841354 371.354645,241.456177 
	C369.030701,239.504333 366.949188,237.263824 364.442993,234.714203 
	C365.781158,229.994827 367.440308,225.707977 369.146515,221.299515 
	C364.820129,220.140640 361.529236,220.266739 360.451233,225.129364 
z"/>
<path fill="#0E0E0E" opacity="1.000000" stroke="none" 
	d="
M1.000001,74.000000 
	C1.000000,49.747589 1.000000,25.495178 1.000000,1.000000 
	C20.353552,1.000000 39.708118,1.000000 59.531536,1.468651 
	C60.322094,10.890576 60.254585,19.878386 61.045307,28.790045 
	C62.772488,48.255791 64.504494,67.738861 67.020966,87.112709 
	C70.901894,116.991211 77.274323,146.461105 87.063087,174.918625 
	C96.818108,203.278000 108.376228,231.017151 119.221870,259.338196 
	C120.197411,260.152924 121.094856,260.657684 122.015900,261.527283 
	C124.752617,267.381592 127.384521,272.912994 130.192551,278.353485 
	C144.094910,305.288940 160.499298,330.670715 178.549896,354.970367 
	C197.379303,380.318512 218.264740,403.914825 240.615250,426.223969 
	C242.143112,427.748993 242.889938,430.056458 244.000000,432.000000 
	C216.312439,432.000000 188.624878,432.000000 160.450653,431.631775 
	C159.121002,429.496124 158.554749,427.517914 157.393066,425.993378 
	C142.689926,406.697968 127.164276,387.981720 113.301201,368.104553 
	C90.689079,335.682922 71.771324,301.090729 55.825699,264.853119 
	C42.789093,235.226471 31.727694,204.928574 23.210915,173.728775 
	C14.618009,142.250107 8.133047,110.320343 3.880023,77.946304 
	C3.693856,76.529205 1.994496,75.310905 1.000001,74.000000 
z"/>
<path fill="#131313" opacity="1.000000" stroke="none" 
	d="
M119.143776,259.028229 
	C108.376228,231.017151 96.818108,203.278000 87.063087,174.918625 
	C77.274323,146.461105 70.901894,116.991211 67.020966,87.112709 
	C64.504494,67.738861 62.772488,48.255791 61.045307,28.790045 
	C60.254585,19.878386 60.322094,10.890576 60.000195,1.468651 
	C84.020897,1.000000 108.041786,1.000000 132.531342,1.468567 
	C133.330414,9.893489 133.361176,17.875977 134.052307,25.800875 
	C135.592529,43.461773 136.706558,61.208145 139.351639,78.714600 
	C145.358063,118.467690 156.299179,156.959030 171.335770,194.254425 
	C172.330109,196.720688 174.376770,198.762680 175.937653,201.405853 
	C174.246933,209.705795 175.688995,216.456543 183.074097,221.321335 
	C183.051102,222.183426 182.929886,222.797073 182.461578,223.468674 
	C181.069290,223.991684 180.024094,224.456741 178.617004,224.931061 
	C173.010559,227.111176 168.996231,230.539978 166.678574,236.211395 
	C163.007889,244.124268 162.458435,252.244995 162.381927,260.851135 
	C164.838654,260.851135 166.925674,260.851135 169.457901,260.917847 
	C172.601669,261.043854 175.300217,261.103180 178.020599,261.526703 
	C179.786636,265.453369 181.361954,269.110718 183.300903,272.563812 
	C205.164139,311.500580 232.194641,346.632233 263.299194,378.509766 
	C278.240326,393.822205 294.771454,407.579590 310.501587,422.128693 
	C313.848175,425.224030 316.843079,428.699615 320.000000,432.000000 
	C294.979095,432.000000 269.958221,432.000000 244.468658,432.000000 
	C242.889938,430.056458 242.143112,427.748993 240.615250,426.223969 
	C218.264740,403.914825 197.379303,380.318512 178.549896,354.970367 
	C160.499298,330.670715 144.094910,305.288940 130.192551,278.353485 
	C127.384521,272.912994 124.752617,267.381592 122.416794,261.468323 
	C123.870850,260.974304 124.947617,260.904083 126.438553,260.886536 
	C128.241669,260.904846 129.630600,260.870483 131.434052,260.892273 
	C133.239288,260.911499 134.630051,260.874512 136.435150,260.895508 
	C138.240112,260.913574 139.630722,260.873657 141.434967,260.892853 
	C143.237381,260.912018 144.626175,260.872070 146.428741,260.895538 
	C148.233398,260.917511 149.624268,260.876099 151.411957,260.898682 
	C152.876144,260.918243 153.943512,260.873779 155.438080,260.897461 
	C157.105911,260.869110 158.346558,260.772644 159.531631,260.680481 
	C159.948822,255.514267 160.333206,250.754257 160.842438,245.625916 
	C163.602844,238.816299 166.238419,232.375000 169.022064,225.571793 
	C167.718170,225.022446 165.189178,223.956940 162.434021,222.796127 
	C163.075729,221.380066 163.601212,220.220474 164.466583,218.996796 
	C171.837646,212.304886 171.926422,202.282333 164.908478,194.691284 
	C163.405975,193.468201 162.013535,192.546341 160.341812,191.375336 
	C158.396576,190.657394 156.730621,190.188644 154.762161,189.548752 
	C153.315155,189.425247 152.170670,189.472885 150.676147,189.446503 
	C148.185898,190.234604 146.045670,191.096710 143.597366,191.983215 
	C142.519226,192.655838 141.749176,193.304062 140.662445,194.080246 
	C132.766495,202.522888 133.051651,213.276947 141.213425,220.226929 
	C141.265579,221.675034 141.132187,222.829010 140.649811,223.965363 
	C138.868988,224.635742 137.437149,225.323746 135.659729,226.035614 
	C133.388016,227.623901 131.461899,229.188324 129.254715,230.904892 
	C127.353676,233.713165 125.733719,236.369293 123.870552,239.295715 
	C122.835564,241.641724 121.756584,243.658005 121.312263,245.805588 
	C120.408134,250.175613 119.846527,254.616531 119.143776,259.028229 
z"/>
<path fill="#181818" opacity="1.000000" stroke="none" 
	d="
M175.933960,201.002014 
	C174.376770,198.762680 172.330109,196.720688 171.335770,194.254425 
	C156.299179,156.959030 145.358063,118.467690 139.351639,78.714600 
	C136.706558,61.208145 135.592529,43.461773 134.052307,25.800875 
	C133.361176,17.875977 133.330414,9.893489 133.000000,1.468567 
	C157.354233,1.000000 181.708450,1.000000 206.531342,1.000000 
	C207.273849,55.191013 216.946762,107.639565 236.604294,158.150513 
	C241.658508,171.137527 247.707870,183.736237 253.235107,196.541351 
	C254.010941,198.338760 254.414078,200.297028 254.670654,202.643661 
	C253.917160,203.187668 253.482742,203.268845 252.596497,203.262665 
	C250.323563,203.149872 248.496857,203.205597 246.682678,203.080109 
	C243.913040,202.888535 242.891983,204.070282 242.907288,206.849136 
	C242.991241,222.087067 242.883621,237.326569 243.084778,252.562317 
	C243.100357,253.742615 244.983856,254.898239 246.018723,256.432007 
	C246.942795,258.731781 247.633240,260.803864 248.784546,262.576691 
	C262.299164,283.387115 276.705017,303.595428 294.025146,321.399261 
	C311.288513,339.144745 328.613953,356.963348 347.272980,373.184601 
	C371.925476,394.616272 399.367889,412.325623 428.237091,427.730072 
	C429.804565,428.566467 430.759766,430.550293 432.000000,432.000000 
	C414.312439,432.000000 396.624878,432.000000 378.398590,431.662903 
	C376.568878,430.094696 375.405731,428.682526 373.964233,427.664612 
	C368.394501,423.731689 362.707123,419.965912 357.115265,416.063751 
	C324.908875,393.589020 296.376526,366.991150 270.376740,337.695221 
	C252.256653,317.277954 236.423218,295.066101 221.746735,272.054260 
	C219.545090,268.602234 217.899109,264.795837 216.320740,261.079987 
	C217.084778,260.946014 217.524155,260.885376 218.397949,260.890320 
	C222.019501,261.450104 223.514389,260.272675 223.105789,256.885712 
	C222.667816,253.255341 222.368027,249.606659 222.082596,245.960114 
	C221.862335,243.146240 220.255356,242.732132 217.531403,243.315552 
	C215.766983,243.125641 214.406662,243.003159 212.830460,242.637451 
	C210.775116,240.861465 208.935654,239.328690 207.023041,237.399948 
	C206.620956,233.066208 206.292023,229.128433 205.904709,224.491730 
	C205.287094,224.184906 203.750534,223.421585 202.057388,222.580460 
	C203.775452,220.694290 205.294418,219.026688 207.069763,217.161835 
	C211.948441,209.095352 211.541367,202.054916 205.979126,195.519623 
	C203.898560,193.855820 201.942505,192.493530 199.719757,190.939682 
	C198.630798,190.511047 197.808548,190.273987 196.690796,189.850754 
	C194.560867,189.648087 192.726456,189.631607 190.514328,189.564178 
	C189.419403,189.752426 188.702194,189.991638 187.663834,190.245483 
	C186.235474,190.864883 185.128250,191.469666 183.686005,192.119873 
	C180.878632,195.110855 178.406296,198.056442 175.933960,201.002014 
M221.621780,223.368515 
	C219.737213,223.179077 217.852661,222.989639 215.218002,222.817505 
	C210.394302,223.904724 208.109161,227.317154 208.383224,231.852646 
	C208.649368,236.257355 210.802933,239.822372 216.518463,240.564789 
	C218.378799,240.097260 220.239120,239.629730 222.761948,238.946991 
	C228.360840,233.548737 228.129089,228.224472 221.621780,223.368515 
z"/>
<path fill="#080808" opacity="1.000000" stroke="none" 
	d="
M1.000001,74.468658 
	C1.994496,75.310905 3.693856,76.529205 3.880023,77.946304 
	C8.133047,110.320343 14.618009,142.250107 23.210915,173.728775 
	C31.727694,204.928574 42.789093,235.226471 55.825699,264.853119 
	C71.771324,301.090729 90.689079,335.682922 113.301201,368.104553 
	C127.164276,387.981720 142.689926,406.697968 157.393066,425.993378 
	C158.554749,427.517914 159.121002,429.496124 159.981995,431.631775 
	C133.312439,432.000000 106.624878,432.000000 79.450165,431.635742 
	C77.872269,429.254272 76.967239,427.106812 75.659081,425.242157 
	C69.551834,416.536865 63.086235,408.074036 57.199760,399.224518 
	C37.647774,369.830750 20.483761,339.069000 5.084261,307.308594 
	C4.130443,305.341400 2.379873,303.760590 0.999999,302.000000 
	C1.000000,226.312439 1.000000,150.624878 1.000001,74.468658 
z"/>
<path fill="#292929" opacity="1.000000" stroke="none" 
	d="
M657.000000,302.531342 
	C604.501709,303.992432 555.781616,290.138794 509.901123,265.350922 
	C505.331848,262.882294 501.307281,259.405548 496.951111,255.592010 
	C496.884094,247.697556 497.043121,240.603882 496.855621,233.519379 
	C496.731964,228.846603 495.966431,224.259171 490.754639,221.615280 
	C485.428406,219.846054 480.408569,218.488297 475.535217,222.808960 
	C474.369537,223.080734 473.395111,223.516830 472.739014,223.228531 
	C470.764404,222.360855 468.913696,221.211075 467.014679,220.171310 
	C466.546112,220.568542 466.077576,220.965775 465.609009,221.363007 
	C465.609009,225.244949 465.609009,229.126907 465.609009,233.008850 
	C463.750549,232.183868 461.868073,231.408157 460.040924,230.518875 
	C458.478333,229.758392 456.979156,228.867645 454.811340,227.850739 
	C452.439758,226.139282 450.708771,224.611633 448.835785,222.873993 
	C448.462067,222.417923 448.230377,222.171844 447.998688,221.925751 
	C446.986328,220.104568 446.343903,217.896667 444.905548,216.520767 
	C426.156250,198.585358 410.104126,178.518265 396.587250,156.377823 
	C379.431244,128.276657 367.325073,98.146278 359.951630,66.088188 
	C355.918945,48.554855 353.128632,30.861170 352.925507,12.813442 
	C352.884521,9.174827 352.322052,5.542083 352.000000,1.453316 
	C365.354218,1.000000 378.708466,1.000000 392.558319,1.420232 
	C393.368866,4.140768 393.776917,6.432802 393.982117,8.742854 
	C394.745636,17.339649 394.947662,26.018213 396.252167,34.529419 
	C401.262085,67.217522 411.032501,98.334892 427.561829,127.181328 
	C439.122894,147.357300 452.444519,166.325653 469.216705,182.365768 
	C482.145050,194.729767 496.652832,205.437943 510.369751,216.987564 
	C511.876129,218.255920 512.798279,220.218124 513.722656,222.068420 
	C506.657593,226.871918 504.169678,233.411697 505.364441,241.293106 
	C506.480530,248.655548 510.587341,253.707718 518.352356,255.878418 
	C524.631958,257.817993 529.502869,255.791077 534.201233,252.139435 
	C535.140320,254.922943 536.682861,256.907898 539.326721,255.683929 
	C540.661194,255.066116 541.690063,252.664810 541.891785,250.955948 
	C542.318298,247.344681 542.110291,243.658493 542.507446,240.074524 
	C579.092468,256.751068 616.941162,266.254364 657.000000,266.000000 
	C657.000000,278.020905 657.000000,290.041779 657.000000,302.531342 
z"/>
<path fill="#303030" opacity="1.000000" stroke="none" 
	d="
M439.000000,1.000000 
	C456.020905,1.000000 473.041779,1.000000 490.531677,1.437631 
	C491.641785,7.645276 492.116516,13.439448 492.950500,19.181446 
	C499.046326,61.151737 517.176514,96.841103 549.851196,124.205414 
	C580.702942,150.043045 616.248413,164.295746 657.000000,164.000000 
	C657.000000,181.354233 657.000000,198.708450 656.537720,216.531342 
	C649.277771,216.622253 642.450867,216.522827 635.687927,215.813705 
	C616.716675,213.824463 598.437805,208.840286 580.563049,202.329453 
	C553.627319,192.518188 529.758362,177.595840 508.777893,158.173721 
	C493.939270,144.437256 481.234436,128.845352 470.930115,111.387321 
	C450.829926,77.332550 439.567108,40.710346 439.000000,1.000000 
z"/>
<path fill="#2C2C2C" opacity="1.000000" stroke="none" 
	d="
M438.531342,1.000000 
	C439.567108,40.710346 450.829926,77.332550 470.930115,111.387321 
	C481.234436,128.845352 493.939270,144.437256 508.777893,158.173721 
	C529.758362,177.595840 553.627319,192.518188 580.563049,202.329453 
	C598.437805,208.840286 616.716675,213.824463 635.687927,215.813705 
	C642.450867,216.522827 649.277771,216.622253 656.537720,217.000000 
	C657.000000,228.020889 657.000000,239.041794 656.532715,250.531342 
	C646.643982,250.359222 637.191040,250.015167 627.807068,249.020477 
	C602.499451,246.337830 578.261841,239.622467 555.076660,229.085922 
	C550.870056,227.174240 546.471008,225.686172 542.109985,223.535980 
	C542.039612,216.620270 541.981018,210.170898 542.021362,203.722137 
	C542.035828,201.412186 541.522461,200.000641 538.756531,199.949280 
	C535.819275,199.894730 535.008850,201.261063 535.103943,203.871475 
	C535.200256,206.513824 535.271973,209.173035 535.086731,211.806030 
	C534.793152,215.981186 534.276917,220.140686 533.633484,224.026718 
	C528.607910,220.962341 523.803528,218.179108 517.643188,220.939255 
	C516.195984,221.253342 515.093689,221.555939 513.991394,221.858521 
	C512.798279,220.218124 511.876129,218.255920 510.369751,216.987564 
	C496.652832,205.437943 482.145050,194.729767 469.216705,182.365768 
	C452.444519,166.325653 439.122894,147.357300 427.561829,127.181328 
	C411.032501,98.334892 401.262085,67.217522 396.252167,34.529419 
	C394.947662,26.018213 394.745636,17.339649 393.982117,8.742854 
	C393.776917,6.432802 393.368866,4.140768 393.026978,1.420232 
	C408.020905,1.000000 423.041779,1.000000 438.531342,1.000000 
z"/>
<path fill="#353535" opacity="1.000000" stroke="none" 
	d="
M657.000000,163.531342 
	C616.248413,164.295746 580.702942,150.043045 549.851196,124.205414 
	C517.176514,96.841103 499.046326,61.151737 492.950500,19.181446 
	C492.116516,13.439448 491.641785,7.645276 491.000336,1.437631 
	C514.354248,1.000000 537.708435,1.000000 561.531677,1.436422 
	C563.570496,52.727932 608.165649,95.559692 657.000000,93.000000 
	C657.000000,116.354225 657.000000,139.708450 657.000000,163.531342 
z"/>
<path fill="#1B1B1B" opacity="1.000000" stroke="none" 
	d="
M307.994324,256.148254 
	C310.574402,260.125580 312.726624,264.475800 315.810455,268.014038 
	C327.592560,281.532471 339.042450,295.427917 351.764008,308.023468 
	C388.733643,344.626953 431.012238,373.749359 478.476807,395.209869 
	C513.072876,410.852081 549.157471,421.592163 586.545715,428.096802 
	C588.761963,428.482361 590.747192,430.196228 592.919922,431.645996 
	C557.979126,432.000000 522.958191,432.000000 487.367157,431.666382 
	C485.441071,430.470062 484.150879,429.474854 482.719330,428.764465 
	C462.607727,418.785126 442.167603,409.416595 422.432007,398.744354 
	C399.698730,386.450989 378.892242,371.127747 359.199799,354.397919 
	C348.692047,345.471039 338.258514,336.395264 328.470734,326.700897 
	C319.870117,318.182312 311.792145,309.046143 304.241455,299.578156 
	C292.438019,284.777527 281.274475,269.466644 270.132324,254.238235 
	C272.298706,253.134003 274.172577,252.163467 276.375427,251.082886 
	C282.231415,246.361908 287.032043,241.253479 288.448090,233.826874 
	C290.370941,234.828247 292.293823,235.829620 294.629669,237.331055 
	C295.304657,246.804199 299.270538,253.158325 307.994324,256.148254 
z"/>
<path fill="#141414" opacity="1.000000" stroke="none" 
	d="
M215.996094,261.153351 
	C217.899109,264.795837 219.545090,268.602234 221.746735,272.054260 
	C236.423218,295.066101 252.256653,317.277954 270.376740,337.695221 
	C296.376526,366.991150 324.908875,393.589020 357.115265,416.063751 
	C362.707123,419.965912 368.394501,423.731689 373.964233,427.664612 
	C375.405731,428.682526 376.568878,430.094696 377.929932,431.662903 
	C358.979095,432.000000 339.958221,432.000000 320.468658,432.000000 
	C316.843079,428.699615 313.848175,425.224030 310.501587,422.128693 
	C294.771454,407.579590 278.240326,393.822205 263.299194,378.509766 
	C232.194641,346.632233 205.164139,311.500580 183.300903,272.563812 
	C181.361954,269.110718 179.786636,265.453369 178.266388,261.440674 
	C178.656021,260.938568 178.821686,260.886688 179.399323,260.911133 
	C181.203568,260.935089 182.595810,260.882629 184.383850,260.904602 
	C185.849243,260.928894 186.918823,260.878754 188.359283,260.902893 
	C189.482773,260.932526 190.235397,260.887939 191.411957,260.916901 
	C193.553253,260.936096 195.270645,260.881775 197.359055,260.898621 
	C198.482147,260.927612 199.234207,260.885437 200.410034,260.913849 
	C202.549133,260.935699 204.264481,260.886932 206.412903,260.908875 
	C208.888443,260.926270 210.930878,260.873016 213.347519,260.891113 
	C214.479843,261.026093 215.237976,261.089722 215.996094,261.153351 
z"/>
<path fill="#3B3B3B" opacity="1.000000" stroke="none" 
	d="
M657.000000,92.531342 
	C608.165649,95.559692 563.570496,52.727932 562.000366,1.436422 
	C593.592407,1.000000 625.184814,1.000000 657.000000,1.000000 
	C657.000000,31.353865 657.000000,61.708275 657.000000,92.531342 
z"/>
<path fill="#191919" opacity="1.000000" stroke="none" 
	d="
M269.839844,254.371918 
	C281.274475,269.466644 292.438019,284.777527 304.241455,299.578156 
	C311.792145,309.046143 319.870117,318.182312 328.470734,326.700897 
	C338.258514,336.395264 348.692047,345.471039 359.199799,354.397919 
	C378.892242,371.127747 399.698730,386.450989 422.432007,398.744354 
	C442.167603,409.416595 462.607727,418.785126 482.719330,428.764465 
	C484.150879,429.474854 485.441071,430.470062 486.898499,431.666382 
	C468.979095,432.000000 450.958221,432.000000 432.468658,432.000000 
	C430.759766,430.550293 429.804565,428.566467 428.237091,427.730072 
	C399.367889,412.325623 371.925476,394.616272 347.272980,373.184601 
	C328.613953,356.963348 311.288513,339.144745 294.025146,321.399261 
	C276.705017,303.595428 262.299164,283.387115 248.784546,262.576691 
	C247.633240,260.803864 246.942795,258.731781 246.448853,256.372894 
	C248.587082,255.838943 250.314713,255.730804 252.489883,255.692474 
	C256.635071,255.571136 260.332733,255.379990 264.451019,255.191238 
	C266.527710,254.919724 268.183777,254.645828 269.839844,254.371918 
z"/>
<path fill="#030303" opacity="1.000000" stroke="none" 
	d="
M0.999999,302.468658 
	C2.379873,303.760590 4.130443,305.341400 5.084261,307.308594 
	C20.483761,339.069000 37.647774,369.830750 57.199760,399.224518 
	C63.086235,408.074036 69.551834,416.536865 75.659081,425.242157 
	C76.967239,427.106812 77.872269,429.254272 78.981506,431.635742 
	C53.054794,432.000000 27.109591,432.000000 1.000000,432.000000 
	C1.000000,388.979248 1.000000,345.958282 0.999999,302.468658 
z"/>
<path fill="#2B2B2B" opacity="1.000000" stroke="none" 
	d="
M542.160767,224.002548 
	C546.471008,225.686172 550.870056,227.174240 555.076660,229.085922 
	C578.261841,239.622467 602.499451,246.337830 627.807068,249.020477 
	C637.191040,250.015167 646.643982,250.359222 656.532715,251.000000 
	C657.000000,255.689255 657.000000,260.378510 657.000000,265.533875 
	C616.941162,266.254364 579.092468,256.751068 542.455505,239.609756 
	C542.092773,234.049866 542.126770,229.026199 542.160767,224.002548 
z"/>
<path fill="#EEE393" opacity="1.000000" stroke="none" 
	d="
M406.123291,252.048370 
	C401.672180,253.369110 397.257965,254.841782 392.752075,255.937103 
	C390.905884,256.385895 388.861511,256.019531 386.450562,256.097412 
	C383.187408,256.170837 380.380981,256.170837 376.956604,256.170837 
	C376.956604,252.473206 376.956604,249.196503 376.883667,245.463074 
	C376.810699,231.557587 376.810699,218.108810 376.810699,203.813217 
	C386.394257,205.242416 395.778503,201.463531 404.874512,206.920837 
	C404.379913,209.786118 403.710876,211.891037 402.799438,213.730621 
	C397.369293,206.699585 390.401367,211.472717 384.343292,209.944229 
	C384.343292,215.353806 384.343292,220.054581 384.343292,224.986496 
	C388.124603,224.986496 391.589447,225.148560 395.032410,224.943436 
	C398.908630,224.712509 401.948700,223.040649 403.476440,219.140747 
	C404.549347,221.219315 405.303711,223.168976 406.058044,225.118637 
	C405.400787,225.572113 404.743530,226.025604 403.614105,226.818085 
	C403.581940,227.713760 404.021973,228.270447 404.462006,228.827118 
	C404.462006,228.827118 404.772888,228.776398 404.888733,229.287537 
	C404.557526,231.249512 404.110474,232.700363 403.340027,234.007263 
	C397.198517,229.662231 390.685425,231.705032 384.396912,231.110596 
	C384.396912,237.825043 384.396912,243.852005 384.396912,249.911514 
	C391.490723,250.047440 398.344910,250.914902 404.108643,246.199249 
	C404.879700,248.379105 405.501495,250.213745 406.123291,252.048370 
z"/>
<path fill="#A68043" opacity="1.000000" stroke="none" 
	d="
M288.481812,233.391739 
	C287.032043,241.253479 282.231415,246.361908 276.363525,250.663681 
	C275.671143,248.204407 275.319641,246.054321 275.134888,243.611237 
	C283.732880,235.540375 283.528198,218.970490 271.090149,211.552399 
	C271.857452,209.382614 272.560883,207.575043 273.264313,205.767471 
	C285.383331,210.884201 289.320648,220.590332 288.481812,233.391739 
z"/>
<path fill="#B49353" opacity="1.000000" stroke="none" 
	d="
M308.250244,256.091064 
	C299.270538,253.158325 295.304657,246.804199 294.978821,237.416687 
	C295.935699,230.309174 298.452393,224.616440 305.559021,221.977417 
	C306.635925,223.489655 307.293030,224.736679 307.734009,226.238922 
	C305.602997,228.929733 303.688141,231.365356 301.773254,233.800980 
	C302.097198,234.253998 302.421112,234.707016 302.745056,235.160034 
	C305.839020,235.160034 308.932953,235.160034 312.017975,235.577133 
	C311.991486,237.388672 311.973969,238.783127 311.956421,240.177582 
	C308.893372,240.360382 305.830322,240.543198 302.556305,240.738586 
	C302.188629,245.538849 305.359467,247.546295 308.749939,250.222153 
	C308.997955,252.551285 309.005676,254.225845 309.013428,255.900406 
	C308.844299,255.944916 308.675232,255.989410 308.250244,256.091064 
z"/>
<path fill="#D8C77E" opacity="1.000000" stroke="none" 
	d="
M360.349548,225.495132 
	C361.529236,220.266739 364.820129,220.140640 369.146515,221.299515 
	C367.440308,225.707977 365.781158,229.994827 364.112915,234.644180 
	C361.496582,240.806808 358.246246,246.422745 356.513641,252.473328 
	C355.402771,256.352722 353.402252,255.858215 350.434967,255.307739 
	C350.690338,251.597778 351.358215,248.376312 352.026123,245.154846 
	C353.672180,241.561615 355.383301,237.996338 356.943237,234.366104 
	C358.143341,231.573395 359.153351,228.698990 360.349548,225.495132 
z"/>
<path fill="#CFB76F" opacity="1.000000" stroke="none" 
	d="
M351.706665,244.972229 
	C351.358215,248.376312 350.690338,251.597778 350.027039,255.231415 
	C349.277008,255.198380 348.101227,254.929260 347.830505,254.281784 
	C343.292755,243.426971 338.867950,232.524933 334.218842,221.145782 
	C337.011993,221.145782 339.255280,221.145782 341.660736,221.145782 
	C344.869324,228.945404 348.128296,236.867493 351.706665,244.972229 
z"/>
<path fill="#C5A964" opacity="1.000000" stroke="none" 
	d="
M312.421936,240.260590 
	C311.973969,238.783127 311.991486,237.388672 312.472900,235.525055 
	C316.181641,235.055893 319.426514,235.055893 322.988892,235.055893 
	C322.875916,229.725342 320.270569,226.821289 315.990082,224.682648 
	C315.999451,222.895081 316.006531,221.520218 316.013580,220.145340 
	C325.777985,221.678146 330.382843,228.063324 329.938324,240.343597 
	C324.298950,240.343597 318.593201,240.343597 312.421936,240.260590 
z"/>
<path fill="#9A6E34" opacity="1.000000" stroke="none" 
	d="
M272.976532,205.521179 
	C272.560883,207.575043 271.857452,209.382614 270.708435,211.481750 
	C264.516571,211.129395 258.770294,210.485489 253.017517,209.432343 
	C253.023438,207.132080 253.035889,205.241043 253.048340,203.350021 
	C253.482742,203.268845 253.917160,203.187668 254.674896,203.032089 
	C260.895050,203.730072 266.791901,204.502472 272.976532,205.521179 
z"/>
<path fill="#BFA25E" opacity="1.000000" stroke="none" 
	d="
M309.389648,256.012970 
	C309.005676,254.225845 308.997955,252.551285 308.989990,250.457962 
	C314.656525,251.881332 319.373993,250.251251 323.610229,245.601166 
	C325.227142,246.858475 326.735535,248.031387 328.551880,249.443741 
	C323.507965,255.907211 317.102203,257.290680 309.389648,256.012970 
z"/>
<path fill="#BC9D5A" opacity="1.000000" stroke="none" 
	d="
M315.592194,220.051086 
	C316.006531,221.520218 315.999451,222.895081 315.572998,224.708954 
	C312.752472,225.426529 310.351318,225.705124 307.950134,225.983719 
	C307.293030,224.736679 306.635925,223.489655 305.906738,221.881699 
	C308.946716,220.999466 312.058746,220.478165 315.592194,220.051086 
z"/>
<path fill="#D8C77E" opacity="1.000000" stroke="none" 
	d="
M436.002319,255.981964 
	C427.209229,255.008194 420.698578,248.067535 420.127014,239.058167 
	C419.558075,230.089859 425.320984,222.899704 435.614563,220.623779 
	C435.992035,222.699158 435.996246,224.351517 435.676514,226.135986 
	C429.856262,228.298462 427.392670,232.507401 427.243256,238.103027 
	C427.075104,244.399506 430.603027,248.346848 436.025818,251.317474 
	C436.012634,253.155014 436.007477,254.568481 436.002319,255.981964 
z"/>
<path fill="#BFA25E" opacity="1.000000" stroke="none" 
	d="
M465.686340,233.471115 
	C465.609009,229.126907 465.609009,225.244949 465.609009,221.363007 
	C466.077576,220.965775 466.546112,220.568542 467.014679,220.171310 
	C468.913696,221.211075 470.764404,222.360855 472.739014,223.228531 
	C473.395111,223.516830 474.369537,223.080734 475.678772,223.150177 
	C476.434143,224.507050 476.709198,225.689590 476.984253,226.872116 
	C473.168213,229.799698 472.496185,233.980286 472.464142,238.378586 
	C472.423340,243.977661 472.454254,249.577286 472.454254,255.503662 
	C470.152557,255.503662 468.411865,255.503662 465.763641,255.503662 
	C465.763641,248.359222 465.763641,241.146301 465.686340,233.471115 
z"/>
<path fill="#AA874A" opacity="1.000000" stroke="none" 
	d="
M491.047119,221.867615 
	C495.966431,224.259171 496.731964,228.846603 496.855621,233.519379 
	C497.043121,240.603882 496.884094,247.697556 496.868347,255.232346 
	C494.885132,255.677368 492.905853,255.677368 490.598938,255.677368 
	C490.086060,247.019348 489.580475,238.484924 489.159363,229.195770 
	C489.844940,226.249878 490.446014,224.058746 491.047119,221.867615 
z"/>
<path fill="#CCB46D" opacity="1.000000" stroke="none" 
	d="
M448.977814,223.083984 
	C450.708771,224.611633 452.439758,226.139282 454.429504,227.838211 
	C459.441986,239.855850 457.721924,247.184357 448.313080,253.396515 
	C447.612091,251.229904 447.245422,249.413498 447.018433,247.280579 
	C451.355042,241.340363 451.155853,235.597305 447.801025,229.366928 
	C448.310455,227.008057 448.644135,225.046021 448.977814,223.083984 
z"/>
<path fill="#E3D78B" opacity="1.000000" stroke="none" 
	d="
M403.663422,234.151199 
	C404.110474,232.700363 404.557526,231.249512 405.002563,229.396362 
	C410.436584,230.382965 412.571564,234.466370 413.070465,239.498901 
	C413.600983,244.850662 412.591919,249.699524 406.483276,252.055435 
	C405.501495,250.213745 404.879700,248.379105 404.230896,245.861740 
	C407.022827,241.356079 405.615967,237.740265 403.663422,234.151199 
z"/>
<path fill="#E3D78B" opacity="1.000000" stroke="none" 
	d="
M403.041809,213.995941 
	C403.710876,211.891037 404.379913,209.786118 405.061584,207.253296 
	C409.593231,207.741333 410.349335,211.494431 410.867065,215.065933 
	C411.437103,218.998260 410.699463,222.694382 406.387573,224.983551 
	C405.303711,223.168976 404.549347,221.219315 403.401123,218.728210 
	C403.018799,216.789841 403.030304,215.392883 403.041809,213.995941 
z"/>
<path fill="#B49353" opacity="1.000000" stroke="none" 
	d="
M490.754639,221.615280 
	C490.446014,224.058746 489.844940,226.249878 489.092072,228.787048 
	C485.708801,225.895325 481.932617,225.419449 477.374573,226.900665 
	C476.709198,225.689590 476.434143,224.507050 476.015533,222.983307 
	C480.408569,218.488297 485.428406,219.846054 490.754639,221.615280 
z"/>
<path fill="#CFB76F" opacity="1.000000" stroke="none" 
	d="
M448.835785,222.873993 
	C448.644135,225.046021 448.310455,227.008057 447.496826,229.153259 
	C443.344727,228.225555 439.672607,227.114716 436.000458,226.003876 
	C435.996246,224.351517 435.992035,222.699158 435.984070,220.634613 
	C439.734772,220.741776 443.489197,221.261139 447.621155,221.853119 
	C448.230377,222.171844 448.462067,222.417923 448.835785,222.873993 
z"/>
<path fill="#D6C178" opacity="1.000000" stroke="none" 
	d="
M446.878754,247.597107 
	C447.245422,249.413498 447.612091,251.229904 447.981567,253.448578 
	C444.214661,254.647110 440.444885,255.443344 436.338715,256.110779 
	C436.007477,254.568481 436.012634,253.155014 436.429688,251.365509 
	C440.187317,249.858704 443.533020,248.727905 446.878754,247.597107 
z"/>
<path fill="#E3D78B" opacity="1.000000" stroke="none" 
	d="
M404.285339,228.531784 
	C404.021973,228.270447 403.581940,227.713760 403.393219,227.065674 
	C403.799225,227.394989 403.953918,227.815720 404.285339,228.531784 
z"/>
<path fill="#93652D" opacity="1.000000" stroke="none" 
	d="
M119.221870,259.338196 
	C119.846527,254.616531 120.408134,250.175613 121.312263,245.805588 
	C121.756584,243.658005 122.835564,241.641724 124.220612,239.454956 
	C125.207878,240.873398 125.902336,242.395157 125.942078,243.933838 
	C126.087494,249.564148 126.014885,255.200073 126.024384,260.833862 
	C124.947617,260.904083 123.870850,260.974304 122.393188,261.103455 
	C121.094856,260.657684 120.197411,260.152924 119.221870,259.338196 
z"/>
<path fill="#C5A964" opacity="1.000000" stroke="none" 
	d="
M151.015152,260.834656 
	C149.624268,260.876099 148.233398,260.917511 146.424728,260.437805 
	C146.004120,239.332825 146.060806,218.748581 145.906998,198.165909 
	C145.891510,196.092010 144.603119,194.027618 143.905457,191.958817 
	C146.045670,191.096710 148.185898,190.234604 150.674103,189.880859 
	C151.019791,213.871048 151.017471,237.352844 151.015152,260.834656 
z"/>
<path fill="#EEE393" opacity="1.000000" stroke="none" 
	d="
M178.987335,260.834778 
	C178.821686,260.886688 178.656021,260.938568 178.244553,261.076477 
	C175.300217,261.103180 172.601669,261.043854 169.449036,260.458740 
	C168.989700,253.468246 169.110382,246.999207 168.887161,240.542068 
	C168.833984,239.003967 167.631485,237.505615 166.957611,235.988998 
	C168.996231,230.539978 173.010559,227.111176 178.622147,225.404694 
	C178.988556,237.524307 178.987946,249.179535 178.987335,260.834778 
z"/>
<path fill="#BC9D5A" opacity="1.000000" stroke="none" 
	d="
M143.597366,191.983215 
	C144.603119,194.027618 145.891510,196.092010 145.906998,198.165909 
	C146.060806,218.748581 146.004120,239.332825 146.010956,260.374390 
	C144.626175,260.872070 143.237381,260.912018 141.428955,260.435089 
	C141.005814,247.939835 141.002289,235.961411 140.998779,223.983002 
	C141.132187,222.829010 141.265579,221.675034 141.290588,219.821274 
	C141.114517,210.731766 141.046814,202.342010 140.979126,193.952271 
	C141.749176,193.304062 142.519226,192.655838 143.597366,191.983215 
z"/>
<path fill="#D6C178" opacity="1.000000" stroke="none" 
	d="
M155.064682,189.719879 
	C156.730621,190.188644 158.396576,190.657394 160.017944,191.695923 
	C159.655670,193.354294 159.065811,194.441742 159.061249,195.531662 
	C158.996002,211.097626 158.970337,226.664200 159.078751,242.229614 
	C159.087524,243.488235 160.146591,244.739548 160.717590,245.994247 
	C160.333206,250.754257 159.948822,255.514267 159.531631,260.680481 
	C158.346558,260.772644 157.105911,260.869110 155.435959,260.439758 
	C155.026001,236.515884 155.045349,213.117874 155.064682,189.719879 
z"/>
<path fill="#CFB76F" opacity="1.000000" stroke="none" 
	d="
M154.762161,189.548752 
	C155.045349,213.117874 155.026001,236.515884 155.008759,260.371582 
	C153.943512,260.873779 152.876144,260.918243 151.411957,260.898682 
	C151.017471,237.352844 151.019791,213.871048 151.024139,189.954865 
	C152.170670,189.472885 153.315155,189.425247 154.762161,189.548752 
z"/>
<path fill="#DECB80" opacity="1.000000" stroke="none" 
	d="
M187.988419,260.828644 
	C186.918823,260.878754 185.849243,260.928894 184.386017,260.446777 
	C183.993942,251.157104 184.104202,242.397629 183.942551,233.643204 
	C183.879456,230.226562 183.204758,226.821213 182.808655,223.410721 
	C182.929886,222.797073 183.051102,222.183426 183.155090,220.906372 
	C183.432220,210.853470 183.726624,201.463943 184.021027,192.074432 
	C185.128250,191.469666 186.235474,190.864883 187.663300,190.699234 
	C187.985413,214.368454 187.986923,237.598557 187.988419,260.828644 
z"/>
<path fill="#D8C77E" opacity="1.000000" stroke="none" 
	d="
M160.842438,245.625916 
	C160.146591,244.739548 159.087524,243.488235 159.078751,242.229614 
	C158.970337,226.664200 158.996002,211.097626 159.061249,195.531662 
	C159.065811,194.441742 159.655670,193.354294 160.297241,191.945099 
	C162.013535,192.546341 163.405975,193.468201 164.545959,194.845245 
	C164.237915,203.220581 164.182297,211.140732 164.126694,219.060883 
	C163.601212,220.220474 163.075729,221.380066 162.434021,222.796127 
	C165.189178,223.956940 167.718170,225.022446 169.022064,225.571793 
	C166.238419,232.375000 163.602844,238.816299 160.842438,245.625916 
z"/>
<path fill="#E2D388" opacity="1.000000" stroke="none" 
	d="
M183.686005,192.119858 
	C183.726624,201.463943 183.432220,210.853470 183.056854,220.657928 
	C175.688995,216.456543 174.246933,209.705795 175.937653,201.405853 
	C178.406296,198.056442 180.878632,195.110855 183.686005,192.119858 
z"/>
<path fill="#E3D78B" opacity="1.000000" stroke="none" 
	d="
M182.461578,223.468674 
	C183.204758,226.821213 183.879456,230.226562 183.942551,233.643204 
	C184.104202,242.397629 183.993942,251.157104 183.990234,260.372375 
	C182.595810,260.882629 181.203568,260.935089 179.399323,260.911133 
	C178.987946,249.179535 178.988556,237.524307 178.984039,225.395432 
	C180.024094,224.456741 181.069290,223.991684 182.461578,223.468674 
z"/>
<path fill="#B08E4F" opacity="1.000000" stroke="none" 
	d="
M140.649796,223.965363 
	C141.002289,235.961411 141.005814,247.939835 141.015320,260.376007 
	C139.630722,260.873657 138.240112,260.913574 136.428574,260.437653 
	C136.006866,248.618454 136.006104,237.315109 136.005325,226.011749 
	C137.437149,225.323746 138.868988,224.635742 140.649796,223.965363 
z"/>
<path fill="#A68043" opacity="1.000000" stroke="none" 
	d="
M135.659729,226.035614 
	C136.006104,237.315109 136.006866,248.618454 136.014221,260.379700 
	C134.630051,260.874512 133.239288,260.911499 131.427856,260.434692 
	C131.003281,252.031097 131.088776,244.139496 130.929062,236.252853 
	C130.891754,234.410828 130.022354,232.585663 129.535797,230.752731 
	C131.461899,229.188324 133.388016,227.623901 135.659729,226.035614 
z"/>
<path fill="#9F7439" opacity="1.000000" stroke="none" 
	d="
M129.254715,230.904892 
	C130.022354,232.585663 130.891754,234.410828 130.929062,236.252853 
	C131.088776,244.139496 131.003281,252.031097 131.013367,260.378479 
	C129.630600,260.870483 128.241669,260.904846 126.438553,260.886566 
	C126.014885,255.200073 126.087494,249.564148 125.942078,243.933838 
	C125.902336,242.395157 125.207878,240.873398 124.463821,239.184647 
	C125.733719,236.369293 127.353676,233.713165 129.254715,230.904892 
z"/>
<path fill="#E2D388" opacity="1.000000" stroke="none" 
	d="
M166.678574,236.211395 
	C167.631485,237.505615 168.833984,239.003967 168.887161,240.542068 
	C169.110382,246.999207 168.989700,253.468246 169.003815,260.392029 
	C166.925674,260.851135 164.838654,260.851135 162.381927,260.851135 
	C162.458435,252.244995 163.007889,244.124268 166.678574,236.211395 
z"/>
<path fill="#B08E4F" opacity="1.000000" stroke="none" 
	d="
M140.662445,194.080246 
	C141.046814,202.342010 141.114517,210.731766 141.105042,219.527161 
	C133.051651,213.276947 132.766495,202.522888 140.662445,194.080246 
z"/>
<path fill="#E2D388" opacity="1.000000" stroke="none" 
	d="
M164.466583,218.996796 
	C164.182297,211.140732 164.237915,203.220581 164.656036,195.146484 
	C171.926422,202.282333 171.837646,212.304886 164.466583,218.996796 
z"/>
<path fill="#CCB46D" opacity="1.000000" stroke="none" 
	d="
M196.988022,260.827454 
	C195.270645,260.881775 193.553253,260.936096 191.417084,260.458344 
	C190.962860,236.489212 190.927444,213.052170 190.892029,189.615143 
	C192.726456,189.631607 194.560867,189.648087 196.693085,190.317017 
	C196.989929,214.255463 196.988983,237.541443 196.988022,260.827454 
z"/>
<path fill="#8F6029" opacity="1.000000" stroke="none" 
	d="
M252.596497,203.262665 
	C253.035889,205.241043 253.023438,207.132080 252.603333,209.512909 
	C251.469925,211.211182 250.133682,212.409866 250.114166,213.629608 
	C249.945221,224.192001 249.944077,234.759186 250.099442,245.321899 
	C250.118423,246.613876 251.354874,247.887924 252.020782,249.577271 
	C252.023758,251.863724 252.033051,253.743195 252.042358,255.622650 
	C250.314713,255.730804 248.587082,255.838943 246.429321,256.006226 
	C244.983856,254.898239 243.100357,253.742615 243.084778,252.562317 
	C242.883621,237.326569 242.991241,222.087067 242.907288,206.849136 
	C242.891983,204.070282 243.913040,202.888535 246.682678,203.080109 
	C248.496857,203.205597 250.323563,203.149872 252.596497,203.262665 
z"/>
<path fill="#BC9D5A" opacity="1.000000" stroke="none" 
	d="
M205.979813,260.838196 
	C204.264481,260.886932 202.549133,260.935699 200.415161,260.455383 
	C199.993149,236.994659 199.989807,214.062958 199.986450,191.131256 
	C201.942505,192.493530 203.898560,193.855820 205.803925,195.913086 
	C205.503113,201.729294 205.077042,206.851242 205.098038,211.971344 
	C205.105408,213.769592 206.209885,215.563309 206.813416,217.359100 
	C205.294418,219.026688 203.775452,220.694290 202.057388,222.580460 
	C203.750534,223.421585 205.287094,224.184906 205.904709,224.491730 
	C206.292023,229.128433 206.620956,233.066208 206.924255,237.822098 
	C206.592346,246.039551 206.286072,253.438873 205.979813,260.838196 
z"/>
<path fill="#D6C178" opacity="1.000000" stroke="none" 
	d="
M190.514328,189.564178 
	C190.927444,213.052170 190.962860,236.489212 190.993149,260.384796 
	C190.235397,260.887939 189.482773,260.932526 188.359283,260.902893 
	C187.986923,237.598557 187.985413,214.368454 187.984436,190.684601 
	C188.702194,189.991638 189.419403,189.752426 190.514328,189.564178 
z"/>
<path fill="#C6AB65" opacity="1.000000" stroke="none" 
	d="
M199.719757,190.939682 
	C199.989807,214.062958 199.993149,236.994659 199.991394,260.384827 
	C199.234207,260.885437 198.482147,260.927612 197.359055,260.898621 
	C196.988983,237.541443 196.989929,214.255463 196.988586,190.503204 
	C197.808548,190.273987 198.630798,190.511047 199.719757,190.939682 
z"/>
<path fill="#B08E4F" opacity="1.000000" stroke="none" 
	d="
M206.412903,260.908875 
	C206.286072,253.438873 206.592346,246.039551 206.997406,238.218079 
	C208.935654,239.328690 210.775116,240.861465 212.816147,243.113434 
	C213.002914,249.495026 212.988113,255.157394 212.973312,260.819763 
	C210.930878,260.873016 208.888443,260.926270 206.412903,260.908875 
z"/>
<path fill="#A68043" opacity="1.000000" stroke="none" 
	d="
M215.967850,240.208557 
	C210.802933,239.822372 208.649368,236.257355 208.383224,231.852646 
	C208.109161,227.317154 210.394302,223.904724 215.600845,223.291748 
	C215.978409,229.246841 215.973129,234.727692 215.967850,240.208557 
z"/>
<path fill="#9F7439" opacity="1.000000" stroke="none" 
	d="
M216.243164,240.386673 
	C215.973129,234.727692 215.978409,229.246841 215.975891,223.283081 
	C217.852661,222.989639 219.737213,223.179077 221.687683,223.992828 
	C221.868881,229.465485 221.984161,234.313843 222.099457,239.162186 
	C220.239120,239.629730 218.378799,240.097260 216.243164,240.386673 
z"/>
<path fill="#B49353" opacity="1.000000" stroke="none" 
	d="
M207.069778,217.161835 
	C206.209885,215.563309 205.105408,213.769592 205.098038,211.971344 
	C205.077042,206.851242 205.503113,201.729294 205.928436,196.214615 
	C211.541367,202.054916 211.948441,209.095352 207.069778,217.161835 
z"/>
<path fill="#A68043" opacity="1.000000" stroke="none" 
	d="
M213.347519,260.891113 
	C212.988113,255.157394 213.002914,249.495026 213.032028,243.356659 
	C214.406662,243.003159 215.766983,243.125641 217.542145,243.756317 
	C217.959167,249.784592 217.961349,255.304672 217.963531,260.824738 
	C217.524155,260.885376 217.084778,260.946014 216.320740,261.079987 
	C215.237976,261.089722 214.479843,261.026093 213.347519,260.891113 
z"/>
<path fill="#9A6E34" opacity="1.000000" stroke="none" 
	d="
M218.397934,260.890320 
	C217.961349,255.304672 217.959167,249.784592 217.946228,243.823761 
	C220.255356,242.732132 221.862335,243.146240 222.082596,245.960114 
	C222.368027,249.606659 222.667816,253.255341 223.105789,256.885712 
	C223.514389,260.272675 222.019501,261.450104 218.397934,260.890320 
z"/>
<path fill="#93652D" opacity="1.000000" stroke="none" 
	d="
M222.430695,239.054596 
	C221.984161,234.313843 221.868881,229.465485 221.928894,224.226517 
	C228.129089,228.224472 228.360840,233.548737 222.430695,239.054596 
z"/>
<path fill="#8F6029" opacity="1.000000" stroke="none" 
	d="
M542.109985,223.535980 
	C542.126770,229.026199 542.092773,234.049866 542.110718,239.538269 
	C542.110291,243.658493 542.318298,247.344681 541.891785,250.955948 
	C541.690063,252.664810 540.661194,255.066116 539.326721,255.683929 
	C536.682861,256.907898 535.140320,254.922943 534.003418,251.869476 
	C532.897583,250.207550 532.310120,249.022659 531.911438,247.525742 
	C536.645508,239.965576 536.325562,234.759094 531.185242,227.880249 
	C532.250671,226.583237 533.052734,225.445007 533.854858,224.306793 
	C534.276917,220.140686 534.793152,215.981186 535.086731,211.806030 
	C535.271973,209.173035 535.200256,206.513824 535.103943,203.871475 
	C535.008850,201.261063 535.819275,199.894730 538.756531,199.949280 
	C541.522461,200.000641 542.035828,201.412186 542.021362,203.722137 
	C541.981018,210.170898 542.039612,216.620270 542.109985,223.535980 
z"/>
<path fill="#A0783D" opacity="1.000000" stroke="none" 
	d="
M513.722656,222.068420 
	C515.093689,221.555939 516.195984,221.253342 517.653259,221.357880 
	C518.416199,223.368088 518.824097,224.971146 518.937744,226.721359 
	C509.930969,233.601486 510.118835,243.392868 519.050659,250.144745 
	C518.670959,252.268784 518.323303,254.007584 517.975647,255.746368 
	C510.587341,253.707718 506.480530,248.655548 505.364441,241.293106 
	C504.169678,233.411697 506.657593,226.871918 513.722656,222.068420 
z"/>
<path fill="#9A6E34" opacity="1.000000" stroke="none" 
	d="
M518.352356,255.878418 
	C518.323303,254.007584 518.670959,252.268784 519.486938,250.205353 
	C523.877747,249.199738 527.800171,248.518753 531.722656,247.837769 
	C532.310120,249.022659 532.897583,250.207550 533.682861,251.662415 
	C529.502869,255.791077 524.631958,257.817993 518.352356,255.878418 
z"/>
<path fill="#9A6E34" opacity="1.000000" stroke="none" 
	d="
M519.232056,226.574219 
	C518.824097,224.971146 518.416199,223.368088 517.998169,221.346390 
	C523.803528,218.179108 528.607910,220.962341 533.633423,224.026703 
	C533.052734,225.445007 532.250671,226.583237 530.809937,227.824081 
	C526.524841,227.475876 522.878479,227.025055 519.232056,226.574219 
z"/>
<path fill="#A0783D" opacity="1.000000" stroke="none" 
	d="
M274.968140,243.904236 
	C275.319641,246.054321 275.671143,248.204407 276.034546,250.773712 
	C274.172577,252.163467 272.298706,253.134003 270.132324,254.238251 
	C268.183777,254.645828 266.527710,254.919724 264.444824,254.747925 
	C264.013977,252.539932 264.009949,250.777634 264.349548,248.900177 
	C268.118134,247.158096 271.543121,245.531158 274.968140,243.904236 
z"/>
<path fill="#9A6E34" opacity="1.000000" stroke="none" 
	d="
M264.005920,249.015335 
	C264.009949,250.777634 264.013977,252.539932 264.024200,254.745544 
	C260.332733,255.379990 256.635071,255.571136 252.489868,255.692474 
	C252.033051,253.743195 252.023758,251.863724 252.477264,249.529205 
	C256.628693,249.054550 260.317322,249.034943 264.005920,249.015335 
z"/>
<path fill="#272725" opacity="1.000000" stroke="none" 
	d="
M403.340027,234.007263 
	C405.615967,237.740265 407.022827,241.356079 404.081665,245.516510 
	C398.344910,250.914902 391.490723,250.047440 384.396912,249.911514 
	C384.396912,243.852005 384.396912,237.825043 384.396912,231.110596 
	C390.685425,231.705032 397.198517,229.662231 403.340027,234.007263 
z"/>
<path fill="#272725" opacity="1.000000" stroke="none" 
	d="
M402.799438,213.730621 
	C403.030304,215.392883 403.018799,216.789841 403.082581,218.599304 
	C401.948700,223.040649 398.908630,224.712509 395.032410,224.943436 
	C391.589447,225.148560 388.124603,224.986496 384.343292,224.986496 
	C384.343292,220.054581 384.343292,215.353806 384.343292,209.944229 
	C390.401367,211.472717 397.369293,206.699585 402.799438,213.730621 
z"/>
<path fill="#1C1C1B" opacity="1.000000" stroke="none" 
	d="
M264.349548,248.900177 
	C260.317322,249.034943 256.628693,249.054550 252.483597,249.122223 
	C251.354874,247.887924 250.118423,246.613876 250.099442,245.321899 
	C249.944077,234.759186 249.945221,224.192001 250.114166,213.629608 
	C250.133682,212.409866 251.469925,211.211182 252.609863,209.922150 
	C258.770294,210.485489 264.516571,211.129395 270.644531,211.843964 
	C283.528198,218.970490 283.732880,235.540375 275.134857,243.611237 
	C271.543121,245.531158 268.118134,247.158096 264.349548,248.900177 
z"/>
<path fill="#1F1F1F" opacity="1.000000" stroke="none" 
	d="
M307.734009,226.238922 
	C310.351318,225.705124 312.752472,225.426529 315.570740,225.121628 
	C320.270569,226.821289 322.875916,229.725342 322.988892,235.055893 
	C319.426514,235.055893 316.181641,235.055893 312.481842,235.107971 
	C308.932953,235.160034 305.839020,235.160034 302.745056,235.160034 
	C302.421112,234.707016 302.097198,234.253998 301.773254,233.800980 
	C303.688141,231.365356 305.602997,228.929733 307.734009,226.238922 
z"/>
<path fill="#292929" opacity="1.000000" stroke="none" 
	d="
M447.018433,247.280579 
	C443.533020,248.727905 440.187317,249.858704 436.437683,250.941467 
	C430.603027,248.346848 427.075104,244.399506 427.243256,238.103027 
	C427.392670,232.507401 429.856262,228.298462 435.676514,226.135986 
	C439.672607,227.114716 443.344727,228.225555 447.321075,229.550079 
	C451.155853,235.597305 451.355042,241.340363 447.018433,247.280579 
z"/>
<path fill="#2B2B2B" opacity="1.000000" stroke="none" 
	d="
M518.937744,226.721359 
	C522.878479,227.025055 526.524841,227.475876 530.546570,227.982849 
	C536.325562,234.759094 536.645508,239.965576 531.911438,247.525742 
	C527.800171,248.518753 523.877747,249.199738 519.518982,249.820099 
	C510.118835,243.392868 509.930969,233.601486 518.937744,226.721359 
z"/>
</svg>